<?xml version="1.0" encoding="utf-8"?>
<!-- Generator: Adobe Illustrator 16.0.4, SVG Export Plug-In . SVG Version: 6.00 Build 0)  -->
<!DOCTYPE svg PUBLIC "-//W3C//DTD SVG 1.1//EN" "http://www.w3.org/Graphics/SVG/1.1/DTD/svg11.dtd">
<svg version="1.1" id="Capa_1" xmlns="http://www.w3.org/2000/svg" xmlns:xlink="http://www.w3.org/1999/xlink" x="0px" y="0px" width="50px" height="58.278px" viewBox="1175 660.938 50 58.278" style="enable-background:new 1175 660.938 50 58.278;" xml:space="preserve">
	<style type="text/css">
	<![CDATA[ .st0 {
		fill: #ffffff;
	}
	
	]]>
	</style>
	<g>
		<g id="Layer_5_29_">
			<g>
				<g>
					<g>
						<path class="st0" d="M1216.372,698.95c0,0.511-0.417,0.928-0.927,0.928h-31.303c-0.511,0-0.928-0.417-0.928-0.928v-0.617
						c0-0.511,0.417-0.929,0.928-0.929h31.303c0.51,0,0.927,0.418,0.927,0.929V698.95L1216.372,698.95z" /> </g>
					<g>
						<path class="st0" d="M1197.233,673.256c0,0.51-0.417,0.928-0.928,0.928h-12.163c-0.511,0-0.928-0.417-0.928-0.928v-0.619
						c0-0.51,0.417-0.927,0.928-0.927h12.163c0.51,0,0.928,0.417,0.928,0.927V673.256L1197.233,673.256z" /> </g>
					<g>
						<path class="st0" d="M1215.902,707.515c0,0.511-0.417,0.929-0.928,0.929h-12.163c-0.51,0-0.927-0.418-0.927-0.929v-0.617
						c0-0.511,0.417-0.928,0.927-0.928h12.163c0.511,0,0.928,0.417,0.928,0.928V707.515z" /> </g>
					<g>
						<path class="st0" d="M1203.682,681.82c0,0.511-0.417,0.929-0.927,0.929h-18.612c-0.511,0-0.928-0.418-0.928-0.929v-0.617
						c0-0.511,0.417-0.928,0.928-0.928h18.611c0.51,0,0.928,0.417,0.928,0.928V681.82L1203.682,681.82z" /> </g>
					<g>
						<path class="st0" d="M1216.372,690.386c0,0.51-0.417,0.928-0.927,0.928h-31.303c-0.511,0-0.928-0.418-0.928-0.928v-0.618
						c0-0.511,0.417-0.928,0.928-0.928h31.303c0.51,0,0.927,0.417,0.927,0.928V690.386L1216.372,690.386z" /> </g>
				</g>
				<path class="st0" d="M1222.288,675.063l-14.998-12.334c-1.241-1.021-3.391-1.792-4.998-1.792h-23.593
				c-2.04,0-3.699,1.659-3.699,3.699c0,0,0,39.811,0,50.769c0,3.811,3.604,3.811,3.689,3.811c9.163,0,42.199,0,42.199,0
				c2.039,0,3.698-1.659,3.698-3.7v-35.585C1224.587,678.233,1223.599,676.141,1222.288,675.063z M1206.265,666.524
				c0-0.906,0.751-0.211,0.751-0.211l11.888,10.157c0,0,0.761,0.748-0.543,0.748c-2.784,0-11.135,0-11.135,0
				c-0.53,0-0.961-0.431-0.961-0.959C1206.265,676.26,1206.265,668.958,1206.265,666.524z M1220.889,716.476c0,0-33.941,0-42.459,0
				c-0.151,0-0.69-0.043-0.69-0.793c0-10.312,0-51.046,0-51.046c0-0.521,0.44-0.96,0.959-0.96h23.592c0.4,0,1.234,0.212,1.234,1.353
				v11.23c0,2.039,1.66,3.698,3.7,3.698h13.937c0.253,0,0.685,0.175,0.685,0.792c0,0.009,0.001,34.766,0.001,34.766
				C1221.848,716.046,1221.417,716.476,1220.889,716.476z" /> </g>
		</g>
	</g>
</svg>
