<?xml version="1.0" encoding="utf-8"?>
<!-- Generator: Adobe Illustrator 16.0.4, SVG Export Plug-In . SVG Version: 6.00 Build 0)  -->
<!DOCTYPE svg PUBLIC "-//W3C//DTD SVG 1.1//EN" "http://www.w3.org/Graphics/SVG/1.1/DTD/svg11.dtd">
<svg version="1.1" id="Capa_1" xmlns="http://www.w3.org/2000/svg" xmlns:xlink="http://www.w3.org/1999/xlink" x="0px" y="0px"
	 width="50px" height="58.278px" viewBox="1175 660.938 50 58.278" style="enable-background:new 1175 660.938 50 58.278;"
	 xml:space="preserve">
<style type="text/css">
<![CDATA[
	.st0{fill:#B2D234;}
]]>
</style>
<g>
	<g id="Layer_5_31_">
		<path class="st0" d="M1222.574,672.512h-45.148c-1.129,0-2.053,0.924-2.053,2.053v29.884c0,1.129,0.924,2.053,2.053,2.053h45.148
			c1.129,0,2.053-0.924,2.053-2.053v-29.884C1224.627,673.436,1223.703,672.512,1222.574,672.512z M1207.502,690.933
			c3.811,2.569,13.654,10.189,13.654,10.189c0.393,0.266,0.422,0.947,0.225,1.354c-0.195,0.405-0.809,0.652-1.201,0.387
			c0,0-10.48-7.565-14.488-10.311c-0.225-0.152-0.42,0.031-0.42,0.031l-4.396,3.507c-0.24,0.198-0.557,0.307-0.892,0.307
			c-0.334,0-0.652-0.108-0.892-0.307l-4.448-3.549c0,0-0.152-0.134-0.327-0.013c-3.963,2.751-14.397,10.334-14.397,10.334
			c-0.392,0.266-1.138,0.019-1.334-0.387c-0.196-0.406-0.168-1.089,0.224-1.354c0,0,9.857-7.597,13.606-10.152
			c0.214-0.146-0.01-0.36-0.01-0.36l-13.902-12.519c-0.506-0.412-0.657-1.156-0.345-1.688c0.186-0.318,0.512-0.507,0.874-0.507
			c0.255,0,0.511,0.096,0.723,0.27l19.771,17.327c0.117,0.095,0.283,0.149,0.458,0.149s0.341-0.055,0.458-0.149l19.77-17.327
			c0.213-0.174,0.469-0.27,0.725-0.27c0.361,0,0.688,0.188,0.873,0.507c0.311,0.531,0.162,1.275-0.344,1.688l-13.939,12.558
			C1207.525,690.648,1207.328,690.814,1207.502,690.933z"/>
	</g>
</g>
</svg>
