<?xml version="1.0" encoding="utf-8"?>
<!-- Generator: Adobe Illustrator 16.0.4, SVG Export Plug-In . SVG Version: 6.00 Build 0)  -->
<!DOCTYPE svg PUBLIC "-//W3C//DTD SVG 1.1//EN" "http://www.w3.org/Graphics/SVG/1.1/DTD/svg11.dtd">
<svg version="1.1" id="Capa_1" xmlns="http://www.w3.org/2000/svg" xmlns:xlink="http://www.w3.org/1999/xlink" x="0px" y="0px"
	 width="50px" height="58.278px" viewBox="1175 660.938 50 58.278" style="enable-background:new 1175 660.938 50 58.278;"
	 xml:space="preserve">
<style type="text/css">
<![CDATA[
	.st0{fill:#B2D234;}
]]>
</style>
<g>
	<g id="Layer_5_56_">
		<g>
			<path class="st0" d="M1222.874,677.706c0,0-2.018,0-2.689,0c-0.302,0-0.256-0.45-0.256-0.45v-1.348
				c0-1.77-1.439-3.209-3.208-3.209h-21.956c-0.148,0-0.327-0.296-0.646-0.919c-0.048-0.093-0.095-0.186-0.145-0.278
				c-1.119-2.121-2.571-2.565-3.593-2.565h-5.711c-1.444,0-2.307,0.838-3.321,2.493c-0.066,0.108-0.131,0.218-0.196,0.327
				c-0.327,0.552-0.574,0.942-0.764,0.942h-1.67c-1.77,0-3.209,1.439-3.209,3.209v26.68c0,1.567,1.132,2.875,2.62,3.153
				c0.181,0.062,0.377,0.099,0.589,0.099h39.149c1.06,0,2.078-0.852,2.263-1.896l4.332-24.343
				C1224.648,678.559,1223.933,677.706,1222.874,677.706z M1178.719,675.267h1.669c1.667,0,2.453-1.325,2.972-2.2
				c0.058-0.099,0.117-0.197,0.176-0.293c0.517-0.842,0.92-1.269,1.411-1.269h5.435c0.17,0,0.69,0,1.322,1.197
				c0.044,0.084,0.088,0.17,0.132,0.254c0.474,0.92,1.189,2.312,2.93,2.312h21.956c0.346,0,0.641,0.294,0.641,0.642v1.284
				c0,0,0.04,0.514-0.257,0.514c-8.346,0-33.38,0-33.38,0c-1.059,0-2.077,0.852-2.263,1.896l-3.221,18.101
				c0,0-0.165,0.605-0.165-0.519c0-5.318,0-21.275,0-21.275C1178.076,675.561,1178.37,675.267,1178.719,675.267z"/>
		</g>
	</g>
</g>
</svg>
